#!OML:ASF E:/inclinewalkrobotboard/Project1/Captureday1/Session1/subject1.ASF
:FULLY-SPECIFIED
:DEGREES
1
root 0 0 0 -2.3082330262912976 -6.2117769012994035 -6.667041695647418
lowerback 11.313426945229665 2.215256127351484 5.855011236678684
upperback 0.9346480240439003 3.751809042041166 2.0117304651980827
thorax -5.170453904205476 1.7382522377100451 -1.7135989107671872
lowerneck -17.347624054344465 -3.402067612519878 -1.8542039352304722
upperneck 22.57766736570679 -4.339039406563223 0.23402516972594434
head 10.097987600487155 -2.1058249361379113 -0.21757363647392763
rclavicle -4.77028244515104E-16 1.984623960627873E-15
rhumerus -30.885923863819926 -18.651087139233688 -81.4411252737527
rradius 24.82007219202888
rwrist 8.921883099061663
rhand -19.747465899117824 28.029432179553872
rfingers 7.125020000000008
rthumb 6.605556981188365 -1.968555478582367
lclavicle -3.859015781047621E-15 1.4986011343853156E-15
lhumerus -33.95939924772221 4.13581411573613 83.26854967347867
lradius 21.436716127872476
lwrist 3.086354785714037
lhand -27.49139081304811 27.181497262985026
lfingers 7.125020000000051
lthumb -0.898349140286788 57.14934179097756
rfemur 0.1111419782748655 7.302164385748844 33.704952104507164
rtibia 34.249081792132
rfoot -14.85663213016269 -5.0368783443091205
rtoes 1.6553081471975573
lfemur -24.391862042299152 -4.7588668711517705 -13.757148647246034
ltibia 24.319754485830522
lfoot -5.690048368856523 2.689342394138996
ltoes 0.6729422576495523
2
root 0 0 0 -2.477861830637675 -6.2111295841884555 -6.443885046509226
lowerback 10.924406536977195 2.192194581798276 5.652617167322908
upperback 0.6560822637277827 3.688977120483103 1.927916473807463
thorax -5.2605609679722125 1.7106262138336041 -1.6758502649597022
lowerneck -17.56592958464144 -3.339660951774593 -1.7815691234028335
upperneck 22.44876515068193 -4.272961565495137 0.1703774841041148
head 10.085373535544091 -2.0698051879470483 -0.24405364976212057
rclavicle -7.90015548433839E-16 1.5870597399092816E-15
rhumerus -31.38078940032982 -19.62653459617134 -81.4766185759297
rradius 24.272449050341137
rwrist 9.381332010793024
rhand -19.83387314552097 27.71598936775527
rfingers 7.1250200000000055
rthumb 6.525066797301825 -2.3119288034159524
lclavicle -4.635667163384972E-15 8.881472526738444E-16
lhumerus -35.48795254398605 5.766321718768191 82.11834430111624
lradius 20.293260026171243
lwrist 2.2567966515158826
lhand -27.314187849230045 27.52122732436856
lfingers 7.125020000000047
lthumb -0.715665836829575 57.479871449624326
rfemur 0.9574208172915641 5.993604676050601 31.24672314074231
rtibia 39.29058236404432
rfoot -10.002896881528654 -3.4763748524229263
rtoes 3.334337871739365
lfemur -24.991411699454517 -4.357434775558243 -14.235575724958695
ltibia 25.05092092443104
lfoot -4.756161351340838 1.8278363044551846
ltoes 3.2976560479663775
3
root 0 0 0 -2.921973532073385 -6.1733969175809715 -6.016626952405431
lowerback 9.800992980951987 2.076941080908932 5.12266978094492
upperback -0.016108093187422137 3.466160420977075 1.8183168726500787
thorax -5.373265159628907 1.6113931163459172 -1.4462965892725874
lowerneck -17.930598198215392 -3.214587619717227 -1.6201082793754682
upperneck 22.41042891279169 -4.1579550673593175 0.12970032770682338
head 10.136454993749553 -1.9957299769170365 -0.2715744309910179
rclavicle -4.237197441061975E-16 1.6094001030843314E-15
rhumerus -31.88344648560556 -21.002144431617744 -81.18385013955279
rradius 23.527017985524793
rwrist 9.649256499124341
rhand -19.802579926359883 27.145642265923293
rfingers 7.1250200000000055
rthumb 6.556521677969182 -2.89767005074296
lclavicle -4.8156274757043875E-15 7.051093914457707E-16
lhumerus -36.736826695729405 6.97472710498411 80.98150914387278
lradius 19.771486242184857
lwrist 1.9034290616622178
lhand -27.25230095613435 27.833022230151602
lfingers 7.125020000000038
lthumb -0.6445383494845416 57.818719385424934
rfemur 1.3010933076083964 3.851804959400602 27.181859021499758
rtibia 48.14165020622023
rfoot -1.7383696022423143 -1.1319491763076819
rtoes 7.785779499591871
lfemur -24.49991638349911 -3.8135582972236794 -14.878942128857124
ltibia 26.157328211732924
lfoot -4.106800872813382 0.8291541342387378
ltoes 4.487988790642213
4
root 0 0 0 -3.699604648575002 -5.97017368919057 -5.073472292896605
lowerback 8.544427117739597 1.793385595888736 3.9618319261124437
upperback -0.7423048399918174 2.9491214030294306 1.6530872686367886
thorax -5.481024872542192 1.3794458380882588 -0.8704650190268405
lowerneck -18.23927034939585 -2.9904848664013417 -1.3322137288298097
upperneck 22.80143763362986 -3.9502570654843114 0.08037744193814622
head 10.356687006548873 -1.8563781212367512 -0.31145739552097934
rclavicle -7.967413667366659E-17 1.6514502512720106E-15
rhumerus -32.51734863757776 -22.64954183936443 -80.73771348288318
rradius 22.48243209962923
rwrist 9.54108269315417
rhand -19.68344296003959 26.40697351138609
rfingers 7.125020000000007
rthumb 6.672011261575785 -3.639505261976616
lclavicle -4.8889762633117106E-15 6.406113186461824E-16
lhumerus -37.316749675040974 7.477276935238549 80.42251854934376
lradius 19.66363027102264
lwrist 1.8579565092812418
lhand -27.257519845139843 27.99246570413849
lfingers 7.125020000000034
lthumb -0.6467707195244108 57.99906201383514
rfemur -4.676904011256283 2.7171906528311127 26.13948236886363
rtibia 57.45285306666043
rfoot 2.47026440553506 -1.3741412969653934
rtoes 11.59727429274427
lfemur -21.56778336779052 -3.438787820351768 -16.589863190307703
ltibia 27.59270370897519
lfoot -3.7316547076166398 -0.7107243037227904
ltoes 6.2428321782461325
5
root 0 0 0 -4.615400747576389 -5.502398521408251 -3.0620425533732782
lowerback 9.692289381464597 1.2189533293208437 1.850532449509079
upperback -0.5682279359582157 1.9418291376598646 1.4061178769722815
thorax -5.98691386500307 0.9246912773920415 0.19713182008235558
lowerneck -18.264820819204644 -2.8039945220374736 -1.074661897073164
upperneck 21.15499439695395 -3.655495536854338 -0.19154329410650406
head 9.907182935438993 -1.730964798313884 -0.3871028524819656
rclavicle 8.966013019940358E-16 1.904037606953012E-15
rhumerus -33.00223813494567 -23.751639534599892 -80.44170427676372
rradius 21.551878649598983
rwrist 9.18825509663219
rhand -19.54001679539895 25.940199957679297
rfingers 7.125020000000009
rthumb 6.810225968513025 -4.1001226265336825
lclavicle -3.7893718367033794E-15 9.449643246197364E-16
lhumerus -37.16882493506786 7.356465314742179 80.3062708888196
lradius 19.834412143873024
lwrist 2.0041304369995045
lhand -27.33967140135828 28.036295861557097
lfingers 7.125020000000033
lthumb -0.7295976964578283 58.04449699235289
rfemur -12.38041575511695 1.6736937210006924 23.81551022909693
rtibia 62.383775321407654
rfoot 4.477579618834971 -2.9370640406043087
rtoes 12.721880234210262
lfemur -15.763615223356439 -3.5263595824195675 -19.548451964894497
ltibia 27.88441037689511
lfoot -4.945007041201883 -1.8592895520568065
ltoes 7.964545361430723
6
root 0 0 0 -4.912268597895412 -4.64303839055637 -1.1130609084544272
lowerback 10.311826157827502 0.5566657798677105 -0.02567894659372616
upperback -0.7456913040056353 0.8312777546226002 1.2714072286368467
thorax -6.566758863212048 0.42473008711353766 1.255850760799811
lowerneck -19.08093436675416 -2.6036255388656193 -1.275628217665163
upperneck 20.968091505221132 -3.3144211885904475 -0.43490147452437555
head 10.066380468564759 -1.5990720582891078 -0.3957492676124073
rclavicle 2.1381629206523606E-15 2.026233847508507E-15
rhumerus -33.02060117015498 -24.379202841774276 -80.19408844189138
rradius 21.25908368915767
rwrist 9.28064607367764
rhand -19.454838796171888 25.63421126035891
rfingers 7.125020000000011
rthumb 6.890904288761034 -4.408335166858784
lclavicle -2.083777205195672E-15 1.26449323122683E-15
lhumerus -36.40682993624402 6.779412978038475 80.3697835154698
lradius 20.265793142493237
lwrist 2.233469689026365
lhand -27.466365472623078 27.917365873389073
lfingers 7.125020000000034
lthumb -0.8571376234942605 57.917195207878244
rfemur -17.75182500095651 0.4412011186554885 19.93841663509189
rtibia 61.37301204701007
rfoot 4.579304804577733 -3.975252567964651
rtoes 11.296784901271407
lfemur -7.1565889872439925 -4.005148990534078 -22.97145931654643
ltibia 25.175717997742314
lfoot -9.676040745923713 -1.0226792467985155
ltoes 4.38724358407903
